# xmcd
#
# Track frame offsets: 
#        150
#        16665
#        36649
#        50857
#        68321
#        92865
#        109221
#        129848
#        144312
#        157859
#        180112
#
# Disc length: 2596 seconds
#
# Revision: 0
# Processed by: cddbd v1.5PL3 Copyright (c) Steve Scherf et al.
# Submitted via: ExactAudioCopy v0.95a3
#
DISCID=830a220b
DTITLE=James T, Doc Span, Dirk DuboisUnknown Artist - Expatriate
DYEAR=2003
DGENRE=Blues
TTITLE0=The Cuckoo
TTITLE1=Temperature
TTITLE2=Ode To An Old Poway Boy
TTITLE3=Spoonful
TTITLE4=Cruisin' For My Used To Be
TTITLE5=Big Girl Blues
TTITLE6=Just To Be With You
TTITLE7=Ain't That Lovin You Baby
TTITLE8=You Don't Ring True
TTITLE9=Be Bold Suzanne
TTITLE10=Rollin' And Tumplin'
EXTD=
EXTT0=
EXTT1=
EXTT2=
EXTT3=
EXTT4=
EXTT5=
EXTT6=
EXTT7=
EXTT8=
EXTT9=
EXTT10=
PLAYORDER=
